<svg xmlns="http://www.w3.org/2000/svg" width="56" height="56" viewBox="0 0 56 56"><title>Translate_icon</title><g fill="none" fill-rule="evenodd"><path d="M21.64 20.66c0-7.6 6.1-13.74 13.6-13.74 7.52 0 13.6 6.15 13.6 13.74 0 7.6-6.08 13.75-13.6 13.75-7.5 0-13.6-6.15-13.6-13.74" fill="#383838"/><path d="M35.8 24.28l-.45.47c-.5-1.02-.98-2.27-1.35-3.74 1.12-.45 2.28-.7 3.35-.7.24 0 .48.02.72.05-.45 1.23-1.16 2.6-2.28 3.93m-5.02 2.74c-.46-.07-.74-.3-.92-.7-.5-1.17.58-3.07 2.33-4.33.43 1.6 1 2.96 1.56 4.07-1.07.7-2.17 1.08-2.98.95m12.2-5.6c-.43-1.08-1.27-1.93-2.44-2.47.2-.93.26-1.7.28-2.18h-2c-.02.38-.08.93-.2 1.6-1.57-.2-3.34 0-5.03.63-.2-1.13-.3-2.17-.37-3.1 6-.35 9.56-1.8 9.72-1.88l-.77-1.87c-.04.02-3.4 1.4-9.03 1.73 0-1.4.08-2.25.1-2.3h-2.02c-.04.4-.1 1.22-.1 2.37h-.17c-1.8 0-3.47-.13-3.87-.17v2.04c.58.05 2 .16 3.63.16h.49c.08 1.15.23 2.47.5 3.9-2.67 1.6-4.78 4.7-3.7 7.23.45 1.07 1.32 1.75 2.46 1.92.2.03.38.05.58.05 1.15 0 2.46-.47 3.72-1.27.82 1.24 1.48 1.88 1.54 1.94l1.38-1.47c-.02 0-.6-.58-1.33-1.7.33-.3.65-.63.94-.98 1.34-1.58 2.17-3.2 2.7-4.67.44.27.9.66 1.12 1.25.8 2-.35 4.34-1.43 5.34l1.35 1.5c1.8-1.7 3.03-4.83 1.93-7.6" fill="#fff"/><path d="M7.15 35.34c0-7.6 6.1-13.75 13.6-13.75 7.52 0 13.6 6.15 13.6 13.74 0 7.6-6.08 13.74-13.6 13.74-7.5 0-13.6-6.15-13.6-13.74" fill="red"/><path d="M23.24 36.24h-4.97l2.48-6.36 2.5 6.36zm-1.4-9.7h-2.16L13 42.76h2.73l1.64-4.32h6.76l1.65 4.32h2.73l-6.67-16.24z" fill="#fff"/></g></svg>